<svg width="220" height="96" viewBox="0 0 220 96" fill="none" xmlns="http://www.w3.org/2000/svg">
  <rect width="220" height="96" rx="18" fill="#FFFFFF"/>
  <g fill="#111111">
    <path d="M32 24H74C83 24 89 30 89 40C89 50 83 56 74 56H49V72H32V24ZM49 40V42H70C71.5 42 72 41.2 72 40C72 38.8 71.5 38 70 38H49Z"/>
    <path d="M103 24H138C146 24 152 29 152 37C152 45 146 50 138 50H120V72H103V24ZM120 38H134C135.5 38 136 37.2 136 36C136 34.8 135.5 34 134 34H120V38Z"/>
    <path d="M166 24H188C197 24 203 29 203 37C203 41.6 200.9 45.1 196.7 47.1L204 72H185L179.5 52H183C184.5 52 185 51.2 185 50C185 48.8 184.5 48 183 48H166V72H149V24H166Z"/>
  </g>
</svg>
